Coordinates
version=1
nRows=27
nColumns=12
inDegrees=yes

Units are S.I. units (second, meters, Newtons, ...)
Angles are in degrees

endheader
time	SC_y	SC_z	SC_x	AC_y	AC_z	AC_x	GH_y	GH_z	GH_yy	EL_x	PS_y
       0.0              -31.58          26.46          3.882          44.95         -11.35          19.43         -113.0         -15.91         -99.33          43.61          10.82
   0.02279              -31.58          26.46          3.889          44.95         -11.35          19.42         -112.9          -15.9         -99.29          43.61          10.84
   0.04558              -31.59          26.46          3.897          44.95         -11.35          19.42         -112.9         -15.89         -99.25           43.6          10.87
   0.06838              -31.59          26.47          3.905          44.96         -11.34          19.42         -112.9         -15.88          -99.2           43.6          10.89
   0.09117              -31.59          26.47          3.914          44.96         -11.34          19.41         -112.8         -15.87         -99.15           43.6          10.92
     0.114              -31.59          26.47          3.923          44.96         -11.34          19.41         -112.8         -15.87          -99.1          43.59          10.94
    0.1368               -31.6          26.47          3.933          44.97         -11.34           19.4         -112.7         -15.85         -99.05          43.59          10.97
    0.1595               -31.6          26.47          3.944          44.97         -11.33           19.4         -112.7         -15.84         -98.99          43.59           11.0
    0.1823               -31.6          26.48          3.955          44.98         -11.33          19.39         -112.6         -15.83         -98.92          43.58          11.04
    0.2051              -31.61          26.48          3.967          44.98         -11.33          19.39         -112.6         -15.82         -98.86          43.58          11.07
    0.2279              -31.61          26.48          3.981          44.99         -11.32          19.38         -112.5         -15.81         -98.78          43.57          11.11
    0.2507              -31.62          26.49          3.995          44.99         -11.32          19.37         -112.4         -15.79          -98.7          43.57          11.15
    0.2735              -31.62          26.49           4.01           45.0         -11.31          19.37         -112.3         -15.78         -98.62          43.56           11.2
    0.2963              -31.62          26.49          4.026          45.01         -11.31          19.36         -112.3         -15.76         -98.53          43.56          11.25
    0.3191              -31.63           26.5          4.044          45.02         -11.31          19.35         -112.2         -15.74         -98.43          43.55           11.3
    0.3419              -31.64           26.5          4.063          45.02          -11.3          19.34         -112.1         -15.72         -98.32          43.54          11.36
    0.3647              -31.64          26.51          4.084          45.03         -11.29          19.33         -112.0          -15.7         -98.21          43.53          11.42
    0.3875              -31.65          26.51          4.107          45.04         -11.29          19.32         -111.8         -15.68         -98.08          43.53          11.48
    0.4103              -31.66          26.52          4.132          45.05         -11.28          19.31         -111.7         -15.65         -97.94          43.52          11.56
     0.433              -31.66          26.52          4.159          45.07         -11.27           19.3         -111.6         -15.62         -97.79          43.51          11.64
    0.4558              -31.67          26.53          4.189          45.08         -11.26          19.29         -111.4         -15.59         -97.62          43.49          11.73
    0.4786              -31.68          26.54          4.222          45.09         -11.26          19.27         -111.3         -15.56         -97.44          43.48          11.82
    0.5014              -31.69          26.54          4.259          45.11         -11.25          19.26         -111.1         -15.52         -97.24          43.47          11.93
    0.5242               -31.7          26.55          4.299          45.13         -11.23          19.24         -110.9         -15.48         -97.01          43.45          12.05
     0.547              -31.72          26.56          4.344          45.15         -11.22          19.22         -110.7         -15.43         -96.76          43.44          12.18
    0.5698              -31.73          26.58          4.394          45.17         -11.21          19.19         -110.4         -15.38         -96.49          43.42          12.33
    0.5926              -31.75          26.59           4.45          45.19         -11.19          19.17         -110.1         -15.32         -96.17           43.4          12.49
